<?xml version="1.0" encoding="UTF-8"?>
<svg width="752pt" height="752pt" version="1.1" viewBox="0 0 752 752" xmlns="http://www.w3.org/2000/svg">
 <path d="m376 229.19c-81.023 0-146.81 65.785-146.81 146.81s65.785 146.81 146.81 146.81 146.81-65.785 146.81-146.81-65.785-146.81-146.81-146.81zm0 9.4727c75.906 0 137.34 61.434 137.34 137.34s-61.434 137.34-137.34 137.34-137.34-61.434-137.34-137.34 61.434-137.34 137.34-137.34zm0 37.887c-2.6172 0-4.7344 2.1211-4.7344 4.7344v94.715c0 1.3086 0.47656 2.5469 1.332 3.4023l60.383 60.234c1.8477 1.8477 4.8086 1.8477 6.6602 0 1.8477-1.8516 1.8477-4.8086 0-6.6602l-58.902-59.047v-92.645c0-2.6172-2.1211-4.7344-4.7344-4.7344z"/>
</svg>
