<?xml version="1.0" encoding="UTF-8"?>
<svg width="752pt" height="752pt" version="1.1" viewBox="0 0 752 752" xmlns="http://www.w3.org/2000/svg">
 <g>
  <path d="m485.59 494.87c-46.789 37.887-129.29 21.5-187.92-36.938-58.629-58.441-75.773-142.07-39.496-190.19 1.5938-2.0938 1.1914-5.082-0.90234-6.6797-2.0898-1.5938-5.082-1.1914-6.6758 0.90234-40.066 52.66-22.73 139.8 40.16 202.69 39.59 39.496 88.18 60.523 131.66 60.523 24.941 0.55469 49.305-7.543 68.953-22.922 2.0391-1.6484 2.3555-4.6367 0.70703-6.6758-1.6445-2.043-4.6367-2.3594-6.6758-0.71094z"/>
  <path d="m521.58 473.75-78.332-78.805c-0.89062-0.89844-2.1016-1.4023-3.3633-1.4023s-2.4727 0.50391-3.3633 1.4023l-19.605 19.891c-10.77 10.82-25.41 16.906-40.68 16.906s-29.91-6.0859-40.68-16.906c-10.77-10.859-16.812-25.531-16.812-40.824s6.043-29.965 16.812-40.82l19.605-19.703c0.89453-0.89062 1.4023-2.0977 1.4023-3.3633 0-1.2617-0.50781-2.4727-1.4023-3.3594l-78.332-78.52c-1.8555-1.8594-4.8672-1.8594-6.7227 0-1.8594 1.8555-1.8594 4.8672 0 6.7227l75.016 74.73-16.48 16.766c-12.449 12.621-19.43 29.633-19.43 47.359 0 17.723 6.9805 34.738 19.43 47.355 12.547 12.586 29.586 19.66 47.355 19.66 17.773 0 34.812-7.0742 47.359-19.66l16.195-16.293 75.301 75.301c1.8555 1.8594 4.8672 1.8594 6.7266 0 1.8555-1.8555 1.8555-4.8672 0-6.7227z"/>
 </g>
</svg>
