<?xml version="1.0" encoding="UTF-8"?>
<svg width="752pt" height="752pt" version="1.1" viewBox="0 0 752 752" xmlns="http://www.w3.org/2000/svg">
 <path d="m376 162.89c-78.461 0-142.07 64.957-142.07 144.89 0 79.992 63.969 173.15 138.23 279.26 0.89062 1.2422 2.3242 1.9766 3.8477 1.9766 1.5273 0 2.9609-0.73438 3.8477-1.9766 74.262-106.11 138.23-199.27 138.23-279.26 0-79.93-63.609-144.89-142.07-144.89zm0 9.4727c73.238 0 132.61 60.5 132.61 135.41 0 73.477-60.191 164.52-132.61 268.16-72.41-103.64-132.6-194.69-132.6-268.16 0-74.914 59.367-135.41 132.6-135.41zm0 56.828c-44.406 0-80.508 36.102-80.508 80.508 0 44.41 36.102 80.508 80.508 80.508 44.41 0 80.512-36.098 80.512-80.508 0-44.406-36.102-80.508-80.512-80.508zm0 9.4727c39.289 0 71.039 31.746 71.039 71.035 0 39.289-31.75 71.039-71.039 71.039s-71.035-31.75-71.035-71.039c0-39.289 31.746-71.035 71.035-71.035z"/>
</svg>
